{"glyphs":{":":{"x_min":0,"x_max":273,"ha":273,"o":"m 100 0 l 100 97 l 174 97 l 174 0 z m 100 410 l 100 507 l 174 507 l 174 410 z"},"$":{"x_min":0,"x_max":500,"ha":500,"o":"m 229 -90 l 229 -9 q 131 -4 94 31 q 56 67 56 156 l 56 217 l 126 217 l 126 169 q 126 100 147 76 q 168 52 225 52 l 229 52 l 229 337 q 132 348 99 382 q 65 416 65 500 l 65 516 q 65 595 73 630 q 81 666 99 686 q 118 707 149 719 q 180 730 229 734 l 229 795 l 278 795 l 278 734 q 370 726 405 691 q 440 655 440 569 l 440 527 l 370 527 l 370 556 q 370 624 351 648 q 331 671 278 673 l 278 404 q 372 390 407 350 q 442 310 442 212 q 442 123 435 91 q 428 58 411 39 q 392 18 359 6 q 327 -6 278 -9 l 278 -90 z m 278 332 l 278 52 q 332 57 352 79 q 372 101 372 157 l 372 238 q 372 286 351 307 q 330 328 278 332 z m 229 408 l 229 673 q 176 669 156 648 q 135 626 135 574 l 135 498 q 135 455 155 435 q 176 416 229 408 z"},"?":{"x_min":0,"x_max":454,"ha":454,"o":"m 149 190 l 149 251 q 149 277 153 293 q 157 309 166 322 q 183 346 237 370 q 259 380 270 386 q 314 409 327 430 q 340 451 340 509 l 340 568 q 340 627 320 647 q 299 666 240 666 l 190 666 q 142 666 120 644 q 98 622 98 572 l 98 501 l 33 501 l 33 562 q 33 652 68 693 q 104 734 180 734 l 257 734 q 337 734 373 696 q 409 659 409 573 l 409 501 q 409 438 394 401 q 379 364 345 343 q 321 328 280 311 q 269 306 264 304 q 233 290 226 277 q 219 265 219 242 l 219 190 z m 150 0 l 150 91 l 218 91 l 218 0 z"},"<":{"x_min":0,"x_max":833,"ha":833,"o":"m 704 501 l 205 298 l 704 96 l 704 43 l 129 278 l 129 318 l 704 554 z"},"'":{"x_min":0,"x_max":144,"ha":144,"o":"m 97 700 l 97 430 l 48 430 l 48 700 z"},"=":{"x_min":0,"x_max":833,"ha":833,"o":"m 709 231 l 709 183 l 124 183 l 124 231 z m 709 413 l 709 365 l 124 365 l 124 413 z"},"a":{"x_min":0,"x_max":412,"ha":412,"o":"m 195 50 q 249 50 271 74 q 294 98 294 158 q 294 216 275 236 q 256 256 203 256 q 149 256 130 234 q 112 212 112 147 q 112 94 131 72 q 150 50 195 50 z m 292 0 l 292 46 q 275 16 247 3 q 218 -10 170 -10 q 106 -10 75 22 q 44 54 44 119 l 44 187 q 44 251 78 284 q 112 317 178 317 q 219 317 247 306 q 274 295 292 273 l 292 352 q 292 417 275 437 q 257 457 205 457 q 162 457 144 442 q 126 427 126 393 l 126 369 l 59 369 l 59 392 q 59 458 95 488 q 130 518 208 518 q 292 518 324 486 q 356 454 356 369 l 356 0 z"},"L":{"x_min":0,"x_max":343,"ha":343,"o":"m 60 0 l 60 725 l 132 725 l 132 71 l 347 71 l 347 0 z"},"3":{"x_min":0,"x_max":500,"ha":500,"o":"m 358 547 q 358 611 337 639 q 315 667 266 667 l 228 667 q 174 667 155 640 q 136 614 136 520 l 136 507 l 67 507 l 67 516 q 67 639 102 686 q 137 734 221 734 l 277 734 q 361 734 396 690 q 431 646 431 535 q 431 455 411 421 q 390 388 339 376 q 392 356 415 319 q 438 282 438 214 q 438 84 402 38 q 366 -9 275 -9 l 216 -9 q 126 -9 90 39 q 54 86 54 209 l 54 238 l 126 238 l 126 204 q 126 112 146 85 q 167 58 224 58 l 263 58 q 315 58 338 86 q 360 113 360 178 l 360 234 q 360 295 338 316 q 316 338 255 338 l 206 338 l 206 403 l 259 403 q 312 403 335 426 q 358 448 358 500 z"},";":{"x_min":0,"x_max":273,"ha":273,"o":"m 100 410 l 100 507 l 174 507 l 174 410 z m 95 -107 l 95 -68 q 114 -67 121 -60 q 128 -52 128 -34 l 128 0 l 100 0 l 100 97 l 174 97 l 174 -17 q 174 -66 159 -87 q 145 -108 111 -108 q 106 -108 102 -108 q 98 -107 95 -107 z"},"J":{"x_min":0,"x_max":424,"ha":424,"o":"m 366 725 l 366 160 q 366 64 328 28 q 290 -9 189 -9 q 88 -9 50 28 q 12 64 12 160 l 12 244 l 84 244 l 84 187 q 84 111 106 85 q 128 59 188 59 q 249 59 271 85 q 294 112 294 187 l 294 725 z"},"V":{"x_min":0,"x_max":475,"ha":475,"o":"m 189 0 l 6 725 l 83 725 l 233 97 l 397 725 l 469 725 l 273 0 z"},"\"":{"x_min":0,"x_max":278,"ha":278,"o":"m 231 700 l 231 430 l 181 430 l 181 700 z m 97 700 l 97 430 l 48 430 l 48 700 z"},"7":{"x_min":0,"x_max":500,"ha":500,"o":"m 101 0 l 364 657 l 61 657 l 61 725 l 422 725 l 422 615 l 177 0 z"},"S":{"x_min":0,"x_max":500,"ha":500,"o":"m 453 252 l 453 148 q 453 68 411 30 q 369 -9 280 -9 l 215 -9 q 116 -9 77 35 q 39 78 39 198 l 39 235 l 114 235 l 114 174 q 114 110 135 86 q 157 62 213 62 l 284 62 q 336 62 356 83 q 376 104 376 159 l 376 221 q 376 250 374 263 q 371 277 365 288 q 351 317 242 334 q 220 338 207 340 q 203 341 197 342 q 126 354 108 365 q 80 383 66 413 q 53 442 53 487 l 53 577 q 53 657 95 696 q 138 734 226 734 l 278 734 q 373 734 413 691 q 453 649 453 548 l 453 527 l 378 527 l 378 551 q 378 615 357 638 q 336 662 280 662 l 221 662 q 169 662 149 642 q 129 621 129 566 l 129 488 q 129 428 229 414 q 252 410 265 408 q 379 390 416 357 q 453 324 453 252 z"},"}":{"x_min":0,"x_max":500,"ha":500,"o":"m 271 540 l 271 422 q 271 347 299 316 q 327 285 394 285 q 397 285 405 286 q 412 286 416 286 l 416 233 q 412 233 405 233 q 397 234 394 234 q 327 234 299 203 q 271 172 271 97 l 271 -22 q 271 -131 237 -167 q 203 -202 107 -202 l 84 -202 l 84 -150 l 103 -150 q 167 -150 189 -126 q 211 -102 211 -27 l 211 91 q 211 174 232 209 q 253 244 307 259 q 253 274 232 309 q 211 344 211 427 l 211 545 q 211 622 189 646 q 167 670 106 670 q 103 670 95 669 q 88 669 84 669 l 84 721 l 107 721 q 203 721 237 685 q 271 649 271 540 z"},"Z":{"x_min":0,"x_max":405,"ha":405,"o":"m 21 0 l 21 67 l 303 655 l 31 655 l 31 725 l 377 725 l 377 657 l 95 70 l 382 70 l 382 0 z"},"x":{"x_min":0,"x_max":377,"ha":377,"o":"m 2 0 l 151 264 l 15 507 l 89 507 l 189 322 l 288 507 l 356 507 l 222 269 l 374 0 l 300 0 l 185 204 l 70 0 z"},")":{"x_min":0,"x_max":315,"ha":315,"o":"m 139 500 q 139 608 119 638 q 100 669 44 670 l 44 734 l 49 734 q 138 734 173 680 q 209 625 209 483 l 209 241 q 209 99 174 45 q 138 -9 49 -9 l 44 -9 l 44 54 q 99 55 119 85 q 139 116 139 224 z"},"&":{"x_min":0,"x_max":519,"ha":519,"o":"m 376 147 l 204 365 q 203 365 199 366 q 196 366 194 366 q 162 366 145 338 q 127 310 127 258 l 127 189 q 127 108 155 78 q 183 49 258 49 q 320 49 348 72 q 376 94 376 144 z m 427 86 q 412 35 372 13 q 332 -9 253 -9 q 140 -9 97 29 q 54 67 54 165 l 54 280 q 54 342 80 379 q 105 417 153 424 l 125 461 l 123 464 q 78 522 78 591 q 78 664 121 699 q 165 734 255 734 q 345 734 379 701 q 412 669 412 578 l 412 537 l 349 537 l 349 574 q 349 632 330 651 q 311 670 256 670 q 201 670 176 651 q 151 632 151 590 q 151 572 157 554 q 164 536 176 520 l 383 247 l 383 407 l 445 407 l 445 178 l 549 46 l 498 -4 z"},"_":{"x_min":0,"x_max":500,"ha":500,"o":"m 500 -187 l 500 -236 l 0 -236 l 0 -187 z"},"v":{"x_min":0,"x_max":387,"ha":387,"o":"m 147 0 l 17 507 l 85 507 l 195 63 l 305 507 l 369 507 l 239 0 z"},"O":{"x_min":0,"x_max":544,"ha":544,"o":"m 294 662 l 250 662 q 181 662 156 627 q 130 592 130 488 l 130 236 q 130 132 156 97 q 181 62 250 62 l 294 62 q 363 62 388 97 q 414 132 414 236 l 414 488 q 414 592 388 627 q 363 662 294 662 z m 303 734 q 402 734 447 676 q 491 619 491 488 l 491 236 q 491 105 447 48 q 402 -9 303 -9 l 241 -9 q 142 -9 97 48 q 53 105 53 236 l 53 488 q 53 619 97 676 q 142 734 241 734 z"},"(":{"x_min":0,"x_max":315,"ha":315,"o":"m 163 224 q 163 115 183 85 q 202 55 257 54 l 257 -9 l 252 -9 q 163 -9 128 45 q 93 98 93 241 l 93 483 q 93 626 128 680 q 164 734 252 734 l 257 734 l 257 670 q 202 669 183 639 q 163 609 163 500 z"},"C":{"x_min":0,"x_max":491,"ha":491,"o":"m 461 244 q 461 236 462 227 q 462 218 462 201 q 462 94 420 42 q 379 -9 292 -9 l 222 -9 q 176 -9 140 8 q 104 24 84 54 q 67 80 60 114 q 53 148 53 219 l 53 244 l 53 488 q 53 619 97 676 q 142 734 241 734 l 279 734 q 377 734 420 685 q 463 637 463 525 q 463 511 463 504 q 462 497 462 491 l 385 491 l 385 500 q 385 594 361 628 q 338 662 277 662 l 238 662 q 176 662 152 627 q 129 592 129 488 l 129 244 q 129 122 150 92 q 171 62 238 62 l 277 62 q 342 62 364 91 q 385 120 385 226 l 385 244 z"},"W":{"x_min":0,"x_max":764,"ha":764,"o":"m 503 0 l 381 581 l 251 0 l 167 0 l 10 725 l 82 725 l 211 93 l 346 725 l 418 725 l 547 93 l 681 725 l 753 725 l 587 0 z"},"A":{"x_min":0,"x_max":486,"ha":486,"o":"m -1 0 l 207 725 l 291 725 l 487 0 l 409 0 l 368 156 l 116 156 l 71 0 z m 135 223 l 350 223 l 247 627 z"},"f":{"x_min":0,"x_max":241,"ha":241,"o":"m 76 0 l 76 447 l 14 447 l 14 507 l 76 507 l 76 597 q 76 671 109 704 q 141 738 213 738 q 225 738 249 736 q 251 736 252 736 l 252 678 q 245 679 238 680 q 230 680 216 680 q 174 680 158 661 q 141 642 141 592 l 141 507 l 252 507 l 252 447 l 141 447 l 141 0 z"},"Q":{"x_min":0,"x_max":544,"ha":544,"o":"m 294 662 l 250 662 q 181 662 156 627 q 130 592 130 488 l 130 236 q 130 132 156 97 q 181 62 250 62 l 294 62 q 333 62 358 73 q 383 84 395 108 l 234 241 l 271 293 l 412 176 q 413 190 414 203 q 414 217 414 236 l 414 488 q 414 592 388 627 q 363 662 294 662 z m 303 734 q 402 734 447 676 q 491 619 491 488 l 491 236 q 491 195 489 168 q 486 141 480 119 l 539 71 l 503 18 l 454 59 q 433 25 395 8 q 357 -9 303 -9 l 241 -9 q 142 -9 97 48 q 53 105 53 236 l 53 488 q 53 619 97 676 q 142 734 241 734 z"},"w":{"x_min":0,"x_max":613,"ha":613,"o":"m 349 507 l 445 65 l 534 507 l 601 507 l 491 0 l 404 0 l 306 452 l 209 0 l 122 0 l 11 507 l 78 507 l 167 65 l 263 507 z"},"-":{"x_min":0,"x_max":301,"ha":301,"o":"m 41 228 l 41 291 l 260 291 l 260 228 z"},"E":{"x_min":0,"x_max":410,"ha":410,"o":"m 384 70 l 384 0 l 60 0 l 60 725 l 384 725 l 384 655 l 132 655 l 132 412 l 366 412 l 366 342 l 132 342 l 132 70 z"},"s":{"x_min":0,"x_max":398,"ha":398,"o":"m 356 175 l 356 107 q 356 48 323 20 q 290 -9 222 -9 l 165 -9 q 95 -9 68 17 q 41 42 41 110 l 41 162 l 105 162 l 105 131 q 105 80 119 65 q 132 51 171 51 l 216 51 q 256 51 272 65 q 288 80 288 115 l 288 163 q 288 217 200 231 q 185 233 176 235 q 88 250 67 269 q 47 288 47 332 l 47 400 q 47 459 80 488 q 113 516 181 516 l 226 516 q 296 516 323 491 q 350 465 350 397 l 350 376 l 286 376 l 286 390 q 286 427 271 442 q 257 456 220 456 l 187 456 q 147 456 131 442 q 115 428 115 393 l 115 344 q 115 304 215 290 q 243 286 259 283 q 311 275 333 250 q 356 225 356 175 z"},">":{"x_min":0,"x_max":833,"ha":833,"o":"m 704 318 l 704 278 l 129 43 l 129 96 l 628 298 l 129 501 l 129 554 z"},"l":{"x_min":0,"x_max":176,"ha":176,"o":"m 56 0 l 56 738 l 121 738 l 121 0 z"},"8":{"x_min":0,"x_max":500,"ha":500,"o":"m 125 233 l 125 176 q 125 110 148 82 q 171 54 224 54 l 276 54 q 329 54 352 83 q 375 111 375 176 l 375 233 q 375 290 350 314 q 325 338 267 338 l 232 338 q 174 338 150 314 q 125 290 125 233 z m 126 574 l 126 504 q 126 453 149 431 q 173 408 226 408 l 273 408 q 326 408 350 431 q 373 453 373 504 l 373 574 q 373 625 350 647 q 326 670 273 670 l 226 670 q 173 670 149 647 q 126 625 126 574 z m 290 734 q 374 734 408 690 q 443 646 443 535 q 443 455 423 421 q 402 388 351 376 q 404 356 427 319 q 450 282 450 214 q 450 84 414 38 q 378 -9 287 -9 l 212 -9 q 121 -9 85 38 q 49 84 49 214 q 49 282 72 319 q 95 356 148 376 q 97 388 76 421 q 56 455 56 535 q 56 646 91 690 q 125 734 209 734 z"},"\\":{"x_min":0,"x_max":241,"ha":241,"o":"m 43 734 l 280 -93 l 225 -93 l -12 734 z"},"e":{"x_min":0,"x_max":419,"ha":419,"o":"m 116 304 l 316 304 l 316 336 q 316 406 295 431 q 273 456 216 456 q 159 456 137 431 q 116 406 116 336 z m 116 241 l 116 193 q 116 104 136 80 q 155 56 214 56 q 275 56 298 74 q 320 92 320 141 l 320 157 l 380 157 l 380 140 q 380 61 341 26 q 302 -9 214 -9 q 122 -9 84 36 q 47 81 47 194 l 47 314 q 47 427 84 471 q 121 516 215 516 q 308 516 344 472 q 381 427 381 314 l 381 241 z"},"b":{"x_min":0,"x_max":428,"ha":428,"o":"m 59 0 l 59 738 l 124 738 l 124 452 q 145 484 175 500 q 206 516 245 516 q 318 516 351 466 q 383 417 383 300 l 383 222 q 383 95 352 43 q 320 -9 247 -9 q 205 -9 175 7 q 145 23 120 59 l 120 0 z m 124 294 l 124 213 q 124 121 147 87 q 170 53 227 53 q 275 53 294 87 q 314 122 314 210 l 314 297 q 314 386 294 420 q 275 454 227 454 q 170 454 147 420 q 124 386 124 294 z"},"%":{"x_min":0,"x_max":815,"ha":815,"o":"m 770 167 q 770 71 745 35 q 720 -2 660 -2 l 606 -2 q 545 -2 521 35 q 496 71 496 167 l 496 278 q 496 374 521 411 q 545 448 606 448 l 660 448 q 720 448 745 411 q 770 374 770 278 z m 707 173 l 707 273 q 707 352 692 371 q 677 390 633 390 q 589 390 574 371 q 559 352 559 273 l 559 173 q 559 94 574 75 q 589 56 633 56 q 677 56 692 75 q 707 94 707 173 z m 318 446 q 318 350 293 313 q 269 277 208 277 l 154 277 q 94 277 69 313 q 44 350 44 446 l 44 557 q 44 653 69 690 q 94 727 154 727 l 208 727 q 269 727 293 690 q 318 653 318 557 z m 255 452 l 255 551 q 255 630 240 650 q 225 669 181 669 q 137 669 122 650 q 107 630 107 551 l 107 452 q 107 373 122 353 q 137 334 181 334 q 225 334 240 353 q 255 373 255 452 z m 212 -9 l 543 734 l 602 734 l 271 -9 z"},"m":{"x_min":0,"x_max":653,"ha":653,"o":"m 352 441 q 371 479 401 498 q 431 516 474 516 q 542 516 571 476 q 600 436 600 340 l 600 0 l 536 0 l 536 322 q 536 397 518 427 q 500 457 458 457 q 406 457 384 419 q 362 381 362 284 l 362 0 l 297 0 l 297 322 q 297 398 280 428 q 263 457 221 457 q 168 457 146 418 q 124 380 124 284 l 124 0 l 59 0 l 59 507 l 119 507 l 119 448 q 138 482 167 499 q 196 516 237 516 q 282 516 311 497 q 340 478 352 441 z"},"#":{"x_min":0,"x_max":769,"ha":769,"o":"m 476 422 l 346 422 l 299 287 l 429 287 z m 448 710 l 366 474 l 495 474 l 579 710 l 641 710 l 558 474 l 712 474 l 694 422 l 539 422 l 491 287 l 657 287 l 639 234 l 473 234 l 390 0 l 327 0 l 411 234 l 280 234 l 196 0 l 134 0 l 217 234 l 57 234 l 76 287 l 235 287 l 284 422 l 112 422 l 129 474 l 302 474 l 386 710 z"},",":{"x_min":0,"x_max":250,"ha":250,"o":"m 83 -107 l 83 -68 q 101 -67 109 -60 q 116 -52 116 -34 l 116 0 l 88 0 l 88 97 l 162 97 l 162 -17 q 162 -66 147 -87 q 133 -108 99 -108 q 94 -108 90 -108 q 86 -107 83 -107 z"},"n":{"x_min":0,"x_max":431,"ha":431,"o":"m 311 0 l 311 322 q 311 398 292 427 q 274 457 229 457 q 172 457 148 418 q 124 380 124 284 l 124 0 l 59 0 l 59 507 l 119 507 l 119 448 q 138 482 169 499 q 200 516 243 516 q 314 516 345 475 q 376 435 376 340 l 376 0 z"},"h":{"x_min":0,"x_max":433,"ha":433,"o":"m 313 0 l 313 322 q 313 398 294 427 q 276 457 231 457 q 174 457 150 418 q 126 380 126 284 l 126 0 l 61 0 l 61 738 l 126 738 l 126 456 q 146 487 175 502 q 204 516 245 516 q 316 516 347 475 q 378 435 378 340 l 378 0 z"},"z":{"x_min":0,"x_max":331,"ha":331,"o":"m 24 0 l 24 67 l 238 447 l 46 447 l 46 507 l 303 507 l 303 441 l 89 60 l 303 60 l 303 0 z"},"B":{"x_min":0,"x_max":514,"ha":514,"o":"m 398 172 l 398 238 q 398 299 368 322 q 339 344 248 344 l 132 344 l 132 67 l 248 67 q 339 67 369 89 q 398 112 398 172 z m 471 164 q 471 73 426 37 q 380 0 264 0 l 60 0 l 60 725 l 250 725 q 375 725 416 692 q 457 660 457 573 l 457 510 q 457 457 437 428 q 417 398 370 382 q 423 368 447 332 q 471 297 471 233 z m 132 414 l 243 414 q 330 414 358 433 q 386 451 386 502 l 386 582 q 386 625 359 641 q 331 657 243 657 l 132 657 z"},"K":{"x_min":0,"x_max":491,"ha":491,"o":"m 60 0 l 60 725 l 132 725 l 132 413 l 169 413 l 401 725 l 481 725 l 225 381 l 514 0 l 424 0 l 163 344 l 132 344 l 132 0 z"},"R":{"x_min":0,"x_max":519,"ha":519,"o":"m 132 289 l 132 0 l 60 0 l 60 725 l 264 725 q 390 725 430 687 q 471 649 471 545 l 471 478 q 471 408 444 372 q 417 335 359 328 q 413 317 438 281 q 463 245 463 178 l 463 0 l 391 0 l 391 145 q 391 231 364 260 q 336 289 256 289 z m 253 657 l 132 657 l 132 359 l 253 359 q 342 359 367 382 q 392 405 392 471 l 392 565 q 392 619 368 638 q 345 657 253 657 z"},"T":{"x_min":0,"x_max":396,"ha":396,"o":"m 162 0 l 162 654 l 7 654 l 7 724 l 389 724 l 389 654 l 234 654 l 234 0 z"},"P":{"x_min":0,"x_max":491,"ha":491,"o":"m 461 462 q 461 357 420 320 q 380 282 255 282 l 132 282 l 132 0 l 60 0 l 60 725 l 255 725 q 380 725 420 687 q 461 649 461 545 z m 244 657 l 132 657 l 132 349 l 244 349 q 333 349 358 369 q 383 388 383 442 l 383 566 q 383 619 359 638 q 335 657 244 657 z"},"|":{"x_min":0,"x_max":500,"ha":500,"o":"m 277 764 l 277 -236 l 224 -236 l 224 764 z"},"t":{"x_min":0,"x_max":338,"ha":338,"o":"m 71 447 l 18 447 l 18 507 l 71 507 l 71 630 l 136 630 l 136 507 l 301 507 l 301 447 l 136 447 l 136 157 q 136 87 149 69 q 162 50 197 50 q 229 50 242 67 q 256 85 256 127 l 256 174 l 315 174 l 315 138 q 315 59 286 25 q 256 -9 189 -9 q 124 -9 97 22 q 71 53 71 137 z"},"M":{"x_min":0,"x_max":764,"ha":764,"o":"m 60 0 l 60 725 l 175 725 l 377 87 l 594 725 l 704 725 l 704 0 l 638 0 l 638 663 l 413 0 l 340 0 l 126 663 l 126 0 z"},"g":{"x_min":0,"x_max":428,"ha":428,"o":"m 304 242 l 304 294 q 304 386 281 420 q 258 454 201 454 q 154 454 135 420 q 115 386 115 297 l 115 239 q 115 150 135 116 q 154 82 201 82 q 258 82 281 116 q 304 150 304 242 z m 369 507 l 369 -18 q 369 -111 333 -149 q 296 -187 207 -187 q 131 -187 94 -161 q 56 -135 56 -82 l 56 -56 l 123 -56 q 123 -58 123 -62 q 122 -66 122 -68 q 122 -100 142 -114 q 162 -128 206 -128 q 263 -128 284 -105 q 304 -83 304 0 l 304 84 q 283 52 253 36 q 223 20 184 20 q 110 20 78 70 q 45 120 45 236 l 45 285 q 45 412 76 464 q 107 516 181 516 q 223 516 254 499 q 285 482 309 447 l 309 507 z"},"j":{"x_min":0,"x_max":171,"ha":171,"o":"m 55 640 l 55 725 l 120 725 l 120 640 z m 55 -45 l 55 507 l 120 507 l 120 -44 q 120 -130 99 -159 q 78 -188 22 -188 q 18 -188 12 -187 q 6 -187 0 -185 l 0 -126 l 9 -126 q 36 -126 46 -113 q 55 -100 55 -45 z"},"i":{"x_min":0,"x_max":171,"ha":171,"o":"m 53 0 l 53 507 l 118 507 l 118 0 z m 53 640 l 53 725 l 118 725 l 118 640 z"},"y":{"x_min":0,"x_max":387,"ha":387,"o":"m 147 0 l 17 507 l 85 507 l 195 63 l 305 507 l 369 507 l 239 0 q 211 -110 180 -149 q 149 -188 97 -188 q 87 -188 76 -187 q 65 -186 53 -183 l 53 -122 q 62 -123 68 -124 q 73 -124 77 -124 q 111 -124 132 -104 q 152 -84 164 -40 l 174 0 z"},"@":{"x_min":0,"x_max":1000,"ha":1000,"o":"m 634 408 l 663 469 l 709 469 l 641 195 q 636 173 635 164 q 633 155 633 150 q 633 129 647 117 q 661 105 685 105 q 710 105 737 115 q 764 125 788 145 q 835 183 862 245 q 888 307 888 383 q 888 507 792 586 q 695 666 543 666 q 458 666 387 642 q 316 618 259 569 q 187 507 150 427 q 114 347 114 250 q 114 165 143 101 q 172 37 233 -12 q 283 -52 352 -75 q 421 -97 499 -97 q 583 -97 662 -73 q 742 -49 809 -3 l 828 -30 q 756 -84 676 -111 q 596 -138 509 -138 q 416 -138 339 -115 q 263 -93 205 -48 q 129 10 93 86 q 57 162 57 262 q 57 362 99 448 q 141 535 222 602 q 287 655 368 683 q 449 710 544 710 q 623 710 694 688 q 766 667 816 628 q 879 580 911 517 q 943 454 943 380 q 943 296 913 229 q 882 161 824 115 q 790 89 751 75 q 713 61 673 61 q 625 61 602 79 q 579 98 579 135 q 579 137 580 142 q 580 146 580 149 q 555 106 518 84 q 481 61 436 61 q 361 61 322 102 q 283 143 283 221 q 283 333 349 411 q 415 488 510 488 q 556 488 587 468 q 618 448 634 408 z m 591 229 l 621 350 q 612 396 584 421 q 556 447 516 447 q 441 447 392 382 q 343 316 343 217 q 343 163 370 132 q 396 102 444 102 q 496 102 536 137 q 577 172 591 229 z"},".":{"x_min":0,"x_max":250,"ha":250,"o":"m 88 0 l 88 97 l 162 97 l 162 0 z"},"p":{"x_min":0,"x_max":428,"ha":428,"o":"m 124 294 l 124 213 q 124 121 147 87 q 170 53 227 53 q 275 53 294 87 q 314 122 314 210 l 314 297 q 314 386 294 420 q 275 454 227 454 q 170 454 147 420 q 124 386 124 294 z m 383 207 q 383 90 351 41 q 318 -9 245 -9 q 206 -9 175 7 q 145 23 124 55 l 124 -188 l 59 -188 l 59 507 l 120 507 l 120 447 q 145 483 175 500 q 206 516 247 516 q 320 516 352 464 q 383 412 383 285 z"},"X":{"x_min":0,"x_max":449,"ha":449,"o":"m 2 0 l 178 381 l 14 725 l 91 725 l 228 427 l 363 725 l 434 725 l 271 367 l 447 0 l 368 0 l 220 321 l 74 0 z"},"*":{"x_min":0,"x_max":389,"ha":389,"o":"m 139 502 l 190 470 l 131 349 l 79 381 z m 245 502 l 305 381 l 253 349 l 194 470 z m 244 581 l 193 613 l 253 734 l 304 702 z m 252 571 l 375 571 l 375 511 l 252 511 z m 140 581 l 80 702 l 131 734 l 191 613 z m 136 511 l 14 511 l 14 571 l 136 571 z"},"Y":{"x_min":0,"x_max":426,"ha":426,"o":"m 181 0 l 181 303 l -9 725 l 70 725 l 216 375 l 362 725 l 434 725 l 252 303 l 252 0 z"},"c":{"x_min":0,"x_max":405,"ha":405,"o":"m 373 187 l 373 166 q 373 74 335 32 q 298 -9 214 -9 q 121 -9 84 36 q 47 81 47 194 l 47 314 q 47 427 84 471 q 121 516 215 516 q 293 516 328 481 q 362 446 362 366 l 362 341 l 297 341 l 297 350 q 297 405 277 428 q 257 451 208 451 q 154 451 135 426 q 116 401 116 314 l 116 193 q 116 106 136 81 q 155 55 211 55 q 266 55 286 78 q 306 101 306 167 l 306 187 z"},"!":{"x_min":0,"x_max":250,"ha":250,"o":"m 91 191 l 91 725 l 159 725 l 159 191 z m 91 0 l 91 91 l 159 91 l 159 0 z"},"/":{"x_min":0,"x_max":241,"ha":241,"o":"m -39 -93 l 198 734 l 253 734 l 16 -93 z"},"[":{"x_min":0,"x_max":315,"ha":315,"o":"m 114 0 l 114 725 l 246 725 l 246 667 l 179 667 l 179 58 l 246 58 l 246 0 z"},"6":{"x_min":0,"x_max":500,"ha":500,"o":"m 449 209 q 449 85 413 38 q 377 -9 288 -9 l 215 -9 q 126 -9 90 38 q 54 85 54 209 l 54 516 q 54 640 90 687 q 126 734 215 734 l 284 734 q 361 734 399 690 q 437 647 437 557 l 437 550 l 369 550 l 369 559 q 369 618 348 642 q 327 667 276 667 l 219 667 q 162 667 142 640 q 122 613 122 520 l 122 383 q 152 417 187 431 q 222 445 277 445 q 370 445 409 406 q 449 368 449 279 z m 223 57 l 282 57 q 339 57 359 84 q 380 111 380 203 l 380 228 q 380 320 360 347 q 339 374 282 374 l 223 374 q 166 374 146 347 q 126 321 126 228 l 126 203 q 126 110 146 84 q 167 57 223 57 z"},"r":{"x_min":0,"x_max":345,"ha":345,"o":"m 122 0 l 57 0 l 57 507 l 117 507 l 117 441 q 135 479 164 498 q 193 516 236 516 q 292 516 316 484 q 341 451 341 378 l 341 339 l 281 339 l 281 363 q 281 416 266 438 q 251 460 217 460 q 166 460 144 429 q 122 398 122 320 z"},"2":{"x_min":0,"x_max":500,"ha":500,"o":"m 365 490 l 365 547 q 365 611 343 639 q 321 667 269 667 l 230 667 q 173 667 153 640 q 133 613 133 520 l 133 495 l 62 495 l 62 516 q 62 639 98 687 q 134 734 222 734 l 281 734 q 369 734 404 690 q 440 646 440 531 l 440 458 q 440 422 434 398 q 429 375 416 356 q 388 315 280 279 q 243 267 223 259 q 165 237 143 205 q 122 172 122 95 l 122 69 l 435 69 l 435 0 l 53 0 l 53 95 q 53 150 60 187 q 66 224 80 245 q 105 284 221 329 l 221 329 q 232 333 253 341 q 333 372 348 392 q 357 404 361 428 q 365 452 365 490 z"},"{":{"x_min":0,"x_max":500,"ha":500,"o":"m 417 669 l 399 669 q 335 669 312 645 q 290 621 290 545 l 290 427 q 290 345 269 310 q 248 274 194 259 q 248 244 269 208 q 290 173 290 91 l 290 -27 q 290 -103 312 -127 q 334 -151 395 -151 q 398 -151 406 -150 q 413 -150 417 -150 l 417 -202 l 394 -202 q 298 -202 264 -167 q 230 -131 230 -22 l 230 97 q 230 172 202 203 q 174 234 107 234 q 104 234 96 233 q 89 233 85 233 l 85 286 q 89 286 96 286 q 104 285 107 285 q 174 285 202 316 q 230 347 230 422 l 230 540 q 230 649 264 685 q 298 721 394 721 l 417 721 z"},"9":{"x_min":0,"x_max":500,"ha":500,"o":"m 275 667 l 216 667 q 159 667 139 641 q 119 616 119 525 l 119 500 q 119 409 139 383 q 159 357 216 357 l 275 357 q 332 357 352 383 q 372 409 372 500 l 372 525 q 372 616 352 641 q 332 667 275 667 z m 376 348 q 346 315 311 301 q 277 287 222 287 q 129 287 89 325 q 49 363 49 451 l 49 516 q 49 640 85 687 q 121 734 210 734 l 283 734 q 372 734 408 687 q 444 640 444 516 l 444 209 q 444 85 408 38 q 372 -9 283 -9 l 199 -9 q 121 -9 83 34 q 46 78 46 167 l 46 175 l 115 175 l 115 166 q 115 106 136 82 q 156 58 207 58 l 279 58 q 336 58 356 84 q 376 111 376 204 z"}," ":{"x_min":0,"x_max":250,"ha":250,"o":""},"I":{"x_min":0,"x_max":197,"ha":197,"o":"m 62 0 l 62 725 l 134 725 l 134 0 z"},"H":{"x_min":0,"x_max":553,"ha":553,"o":"m 60 0 l 60 725 l 132 725 l 132 410 l 421 410 l 421 725 l 493 725 l 493 0 l 421 0 l 421 340 l 132 340 l 132 0 z"},"4":{"x_min":0,"x_max":500,"ha":500,"o":"m 330 234 l 330 647 l 94 234 z m 330 0 l 330 166 l 39 166 l 39 267 l 300 725 l 396 725 l 396 234 l 463 234 l 463 166 l 396 166 l 396 0 z"},"~":{"x_min":0,"x_max":833,"ha":833,"o":"m 747 311 q 697 276 650 259 q 604 241 558 241 q 510 241 431 269 q 421 272 417 274 l 409 277 q 323 308 276 308 q 235 308 190 290 q 146 271 87 230 l 87 285 q 139 321 186 338 q 232 356 276 356 q 327 356 409 326 q 414 324 417 323 q 422 321 433 317 q 514 288 558 288 q 600 288 645 307 q 689 325 747 366 z"},"D":{"x_min":0,"x_max":546,"ha":546,"o":"m 132 67 l 228 67 q 292 67 327 77 q 363 87 383 109 q 401 131 409 163 q 417 195 417 265 l 417 460 q 417 529 409 562 q 401 594 383 616 q 363 638 327 648 q 292 658 228 658 l 132 658 z m 60 0 l 60 725 l 242 725 q 382 725 438 667 q 493 610 493 462 l 493 262 q 493 114 438 57 q 382 0 242 0 z"},"^":{"x_min":0,"x_max":1000,"ha":1000,"o":"m 534 712 l 793 440 l 723 440 l 500 662 l 276 440 l 206 440 l 466 712 z"},"0":{"x_min":0,"x_max":500,"ha":500,"o":"m 229 58 l 271 58 q 332 58 353 89 q 375 120 375 234 l 375 490 q 375 604 353 636 q 332 667 271 667 l 229 667 q 168 667 147 636 q 125 604 125 490 l 125 234 q 125 120 147 89 q 168 58 229 58 z m 211 -9 q 124 -9 87 45 q 51 98 51 236 l 51 488 q 51 626 87 680 q 124 734 211 734 l 289 734 q 376 734 413 680 q 449 626 449 488 l 449 236 q 449 98 413 45 q 376 -9 289 -9 z"},"F":{"x_min":0,"x_max":382,"ha":382,"o":"m 60 0 l 60 725 l 372 725 l 372 655 l 132 655 l 132 402 l 353 402 l 353 332 l 132 332 l 132 0 z"},"`":{"x_min":0,"x_max":500,"ha":500,"o":"m 317 570 l 265 570 l 128 741 l 215 741 z"},"k":{"x_min":0,"x_max":366,"ha":366,"o":"m 58 0 l 58 738 l 123 738 l 123 308 l 154 308 l 284 507 l 355 507 l 205 279 l 385 0 l 308 0 l 154 241 l 123 241 l 123 0 z"},"u":{"x_min":0,"x_max":431,"ha":431,"o":"m 120 507 l 120 185 q 120 110 139 80 q 158 50 203 50 q 259 50 283 88 q 307 126 307 223 l 307 507 l 372 507 l 372 0 l 312 0 l 312 59 q 292 25 262 8 q 231 -9 188 -9 q 117 -9 86 32 q 55 72 55 167 l 55 507 z"},"]":{"x_min":0,"x_max":315,"ha":315,"o":"m 201 725 l 201 0 l 69 0 l 69 58 l 136 58 l 136 667 l 69 667 l 69 725 z"},"U":{"x_min":0,"x_max":519,"ha":519,"o":"m 272 62 q 342 62 366 87 q 389 113 389 202 l 389 725 l 461 725 l 461 167 q 461 73 416 32 q 371 -9 268 -9 l 251 -9 q 148 -9 103 32 q 58 73 58 167 l 58 725 l 130 725 l 130 202 q 130 115 154 89 q 179 62 251 62 z"},"o":{"x_min":0,"x_max":428,"ha":428,"o":"m 116 314 l 116 193 q 116 106 136 81 q 156 55 214 55 q 271 55 292 81 q 312 107 312 193 l 312 314 q 312 400 292 426 q 272 451 214 451 q 156 451 136 425 q 116 399 116 314 z m 381 194 q 381 81 344 36 q 307 -9 214 -9 q 122 -9 84 36 q 47 81 47 194 l 47 314 q 47 427 84 471 q 121 516 215 516 q 308 516 344 472 q 381 427 381 314 z"},"N":{"x_min":0,"x_max":565,"ha":565,"o":"m 60 0 l 60 725 l 166 725 l 435 81 l 435 725 l 505 725 l 505 0 l 395 0 l 130 633 l 130 0 z"},"+":{"x_min":0,"x_max":833,"ha":833,"o":"m 441 596 l 441 322 l 709 322 l 709 274 l 441 274 l 441 0 l 393 0 l 393 274 l 124 274 l 124 322 l 393 322 l 393 596 z"},"G":{"x_min":0,"x_max":532,"ha":532,"o":"m 129 244 q 129 122 150 92 q 171 62 238 62 l 300 62 q 366 62 387 92 q 408 122 408 244 l 408 291 l 281 291 l 281 361 l 484 361 l 484 219 q 484 148 477 114 q 470 80 453 54 q 434 24 397 8 q 361 -9 315 -9 l 222 -9 q 176 -9 140 8 q 104 24 84 54 q 67 80 60 114 q 53 148 53 219 l 53 244 l 53 488 q 53 619 97 676 q 142 734 241 734 l 295 734 q 392 734 435 687 q 478 641 478 534 l 478 510 l 401 510 q 400 598 376 630 q 353 662 293 662 l 238 662 q 176 662 152 627 q 129 592 129 488 z"},"q":{"x_min":0,"x_max":428,"ha":428,"o":"m 302 -188 l 302 55 q 281 23 251 7 q 221 -9 182 -9 q 108 -9 76 41 q 44 90 44 207 l 44 285 q 44 413 75 464 q 106 516 179 516 q 221 516 252 499 q 283 482 307 447 l 307 507 l 367 507 l 367 -188 z m 302 213 l 302 294 q 302 386 279 420 q 256 454 199 454 q 152 454 132 420 q 113 386 113 297 l 113 210 q 113 121 132 87 q 152 53 199 53 q 256 53 279 87 q 302 121 302 213 z"},"d":{"x_min":0,"x_max":428,"ha":428,"o":"m 304 294 q 304 386 281 420 q 258 454 201 454 q 154 454 135 420 q 115 386 115 297 l 115 210 q 115 121 135 87 q 154 53 201 53 q 258 53 281 87 q 304 121 304 213 z m 369 0 l 309 0 l 309 59 q 285 24 254 8 q 223 -9 181 -9 q 107 -9 76 43 q 45 95 45 222 l 45 300 q 45 416 78 466 q 110 516 184 516 q 223 516 253 500 q 283 484 304 452 l 304 738 l 369 738 z"},"1":{"x_min":0,"x_max":500,"ha":500,"o":"m 264 0 l 264 646 l 114 462 l 69 505 l 249 725 l 333 725 l 333 0 z"},"5":{"x_min":0,"x_max":500,"ha":500,"o":"m 436 214 q 436 84 401 38 q 366 -9 277 -9 l 218 -9 q 133 -9 97 37 q 60 83 60 189 l 60 208 l 131 208 l 131 192 q 131 110 151 84 q 170 58 226 58 l 265 58 q 316 58 338 86 q 360 113 360 178 l 360 259 q 360 369 337 397 q 313 426 243 426 q 197 426 171 409 q 144 392 138 359 l 77 359 l 77 725 l 414 725 l 414 657 l 144 657 l 144 440 q 160 467 191 480 q 222 493 268 493 q 356 493 396 447 q 436 400 436 298 z"}}}
